<?xml version="1.0" encoding="UTF-8" standalone="no"?>
<!-- Created with Inkscape (http://www.inkscape.org/) -->

<svg
   xmlns:dc="http://purl.org/dc/elements/1.1/"
   xmlns:cc="http://creativecommons.org/ns#"
   xmlns:rdf="http://www.w3.org/1999/02/22-rdf-syntax-ns#"
   xmlns:svg="http://www.w3.org/2000/svg"
   xmlns="http://www.w3.org/2000/svg"
   xmlns:sodipodi="http://sodipodi.sourceforge.net/DTD/sodipodi-0.dtd"
   xmlns:inkscape="http://www.inkscape.org/namespaces/inkscape"
   id="svg4625"
   version="1.1"
   inkscape:version="0.48.4 r9939"
   width="590"
   height="590"
   sodipodi:docname="calendar_alert.svg">
  <metadata
     id="metadata4631">
    <rdf:RDF>
      <cc:Work
         rdf:about="">
        <dc:format>image/svg+xml</dc:format>
        <dc:type
           rdf:resource="http://purl.org/dc/dcmitype/StillImage" />
        <dc:title></dc:title>
      </cc:Work>
    </rdf:RDF>
  </metadata>
  <defs
     id="defs4629" />
  <sodipodi:namedview
     pagecolor="#ffffff"
     bordercolor="#666666"
     borderopacity="1"
     objecttolerance="10"
     gridtolerance="10"
     guidetolerance="10"
     inkscape:pageopacity="0"
     inkscape:pageshadow="2"
     inkscape:window-width="1373"
     inkscape:window-height="868"
     id="namedview4627"
     showgrid="false"
     inkscape:zoom="0.79186047"
     inkscape:cx="45.574766"
     inkscape:cy="415.81646"
     inkscape:window-x="0"
     inkscape:window-y="0"
     inkscape:window-maximized="0"
     inkscape:current-layer="g5291" />
  <g
     id="g5291"
     inkscape:export-xdpi="33.535496"
     inkscape:export-ydpi="33.535496">
    <g
       id="g5998"
       inkscape:export-filename="C:\DT2\www\assets\img\cal1.png"
       inkscape:export-xdpi="72"
       inkscape:export-ydpi="72">
      <rect
         style="fill:#787878;fill-opacity:1;stroke:#fffcff;stroke-width:1;stroke-linejoin:round;stroke-miterlimit:4;stroke-opacity:1;stroke-dasharray:none"
         id="rect4635"
         width="76.086639"
         height="69.930252"
         x="252.25404"
         y="66.549194"
         rx="2" />
      <rect
         style="fill:#787878;fill-opacity:1;stroke:#fffcff;stroke-width:2;stroke-linejoin:round;stroke-miterlimit:4;stroke-opacity:1;stroke-dasharray:none"
         id="rect5145"
         width="6.7878122"
         height="17.36417"
         x="270.24963"
         y="57.630325"
         rx="2" />
      <rect
         rx="2"
         y="57.630325"
         x="304.34656"
         height="17.36417"
         width="6.7878122"
         id="rect5147"
         style="fill:#787878;fill-opacity:1;stroke:#fffcff;stroke-width:2;stroke-linejoin:round;stroke-miterlimit:4;stroke-opacity:1;stroke-dasharray:none" />
      <rect
         style="fill:#787878;fill-opacity:1;stroke:#fffcff;stroke-width:2;stroke-linejoin:round;stroke-miterlimit:4;stroke-opacity:1;stroke-dasharray:none"
         id="rect5149"
         width="63.931717"
         height="52.250366"
         x="258.41043"
         y="80.124817" />
      <g
         id="g5208"
         transform="matrix(0.98161395,0,0,1,4.5604371,1.2628487)">
        <rect
           y="84.386932"
           x="307.45886"
           height="11.207783"
           width="11.839207"
           id="rect5155"
           style="fill:#ffffff;fill-opacity:1;stroke:none" />
        <rect
           style="fill:#ffffff;fill-opacity:1;stroke:none"
           id="rect5161"
           width="11.839207"
           height="11.207783"
           x="307.45886"
           y="99.15078" />
        <rect
           y="113.91467"
           x="307.45886"
           height="11.207783"
           width="11.839207"
           id="rect5167"
           style="fill:#ffffff;fill-opacity:1;stroke:none" />
      </g>
      <g
         id="g5203"
         transform="matrix(0.98161395,0,0,1,6.1389981,1.2628487)">
        <rect
           style="fill:#ffffff;fill-opacity:1;stroke:none"
           id="rect5175"
           width="11.839207"
           height="11.207783"
           x="291.45886"
           y="84.386932" />
        <rect
           y="99.15078"
           x="291.45886"
           height="11.207783"
           width="11.839207"
           id="rect5177"
           style="fill:#ffffff;fill-opacity:1;stroke:none" />
        <rect
           style="fill:#ffffff;fill-opacity:1;stroke:none"
           id="rect5179"
           width="11.839207"
           height="11.207783"
           x="291.45886"
           y="113.91467" />
      </g>
      <g
         id="g5198"
         transform="matrix(0.98161395,0,0,1,7.0861347,1.2628487)">
        <rect
           y="84.386932"
           x="275.45886"
           height="11.207783"
           width="11.839207"
           id="rect5181"
           style="fill:#ffffff;fill-opacity:1;stroke:none" />
        <rect
           style="fill:#ffffff;fill-opacity:1;stroke:none"
           id="rect5183"
           width="11.839207"
           height="11.207783"
           x="275.45886"
           y="99.15078" />
        <rect
           y="113.91467"
           x="275.45886"
           height="11.207783"
           width="11.839207"
           id="rect5185"
           style="fill:#ffffff;fill-opacity:1;stroke:none" />
      </g>
      <g
         id="g5193"
         transform="matrix(0.98161395,0,0,1,8.0332713,1.2628487)">
        <rect
           style="fill:#ffffff;fill-opacity:1;stroke:none"
           id="rect5187"
           width="11.839207"
           height="11.207783"
           x="259.45886"
           y="84.386932" />
        <rect
           y="99.15078"
           x="259.45886"
           height="11.207783"
           width="11.839207"
           id="rect5189"
           style="fill:#ffffff;fill-opacity:1;stroke:none" />
        <rect
           style="fill:#ffffff;fill-opacity:1;stroke:none"
           id="rect5191"
           width="11.839207"
           height="11.207783"
           x="259.45886"
           y="113.91467" />
      </g>
      <path
         style="fill:#787878;fill-opacity:1;stroke:none"
         d="M 314.65625 94.40625 C 300.06485 94.40625 288.21875 105.71849 288.21875 119.6875 C 288.21875 125.90794 290.57433 131.5975 294.46875 136 L 327.875 136 L 327.875 97.78125 C 323.98583 95.624432 319.47422 94.40625 314.65625 94.40625 z "
         id="path5280" />
      <path
         sodipodi:type="arc"
         style="fill:#ffffff;fill-opacity:1;stroke:none"
         id="path5213"
         sodipodi:cx="315.94897"
         sodipodi:cy="123.53524"
         sodipodi:rx="23.552055"
         sodipodi:ry="22.547464"
         d="m 339.50103,123.53524 a 23.552055,22.547464 0 1 1 -47.10411,0 23.552055,22.547464 0 1 1 47.10411,0 z"
         transform="translate(0.7371516,-1.578561)" />
      <path
         d="m 339.50103,123.53524 a 23.552055,22.547464 0 1 1 -47.10411,0 23.552055,22.547464 0 1 1 47.10411,0 z"
         sodipodi:ry="22.547464"
         sodipodi:rx="23.552055"
         sodipodi:cy="123.53524"
         sodipodi:cx="315.94897"
         id="path5226"
         style="fill:#c00000;fill-opacity:1;stroke:none"
         sodipodi:type="arc"
         transform="matrix(0.91071272,0,0,0.91071272,28.981033,9.6532587)" />
      <text
         xml:space="preserve"
         style="font-size:40px;font-style:normal;font-weight:normal;line-height:125%;letter-spacing:0px;word-spacing:0px;fill:#ffffff;fill-opacity:1;stroke:none;font-family:Sans"
         x="304.13657"
         y="135.95374"
         id="text5253"
         sodipodi:linespacing="125%"><tspan
           sodipodi:role="line"
           id="tspan5255"
           x="304.13657"
           y="135.95374">1</tspan></text>
    </g>
    <g
       id="g5967"
       transform="matrix(0.96049272,0,0,1,21.28448,-11.365639)"
       inkscape:export-filename="C:\DT2\www\assets\img\car.png"
       inkscape:export-xdpi="72"
       inkscape:export-ydpi="72">
      <g
         inkscape:export-ydpi="143.16443"
         inkscape:export-xdpi="143.16443"
         inkscape:export-filename="C:\DT2\www\assets\img\car_alert.png"
         transform="matrix(0.61506139,0,0,0.65721615,201.6436,173.81138)"
         id="g4485">
        <path
           inkscape:connector-curvature="0"
           style="fill:#000000"
           d="M 53.233397,182.8334 C 51.35973,180.95973 51.50599,158 53.391592,158 c 0.765376,0 1.668306,1.10251 2.006511,2.45003 0.765473,3.04989 10.55832,13.74188 15.231626,16.63015 2.498015,1.54385 3.393318,2.75228 3.174724,4.28503 -0.283138,1.98533 -0.970712,2.15463 -9.821056,2.41819 -6.547683,0.19498 -9.901389,-0.10139 -10.75,-0.95 z"
           id="path3957" />
        <path
           inkscape:connector-curvature="0"
           style="fill:#000000"
           d="m 71,181 c 0,-0.55 -0.413736,-1 -0.919413,-1 -1.46619,0 -12.230821,-10.20349 -14.242436,-13.5 l -1.830675,-3 -0.0037,8.05 c -0.0023,4.93255 0.460975,8.51471 1.196262,9.25 1.47123,1.47123 15.8,1.65261 15.8,0.2 z"
           id="path3955" />
        <path
           inkscape:connector-curvature="0"
           style="fill:#000000"
           d="m 182.66667,183.33333 c -1.59033,-1.59032 -0.41975,-4.32281 2.66986,-6.2323 4.62851,-2.86057 12.97752,-11.93921 14.57713,-15.85103 0.73094,-1.7875 1.94939,-3.25 2.70766,-3.25 1.84582,0 2.01129,22.96739 0.17868,24.8 -1.27722,1.27722 -18.92204,1.74463 -20.13333,0.53333 z"
           id="path3953" />
        <path
           inkscape:connector-curvature="0"
           style="fill:#000000"
           d="m 200.8,180.8 c 0.73529,-0.73529 1.19855,-4.31745 1.19626,-9.25 l -0.004,-8.05 -1.83067,3 C 198.15023,169.79651 187.3856,180 185.91941,180 185.41374,180 185,180.45 185,181 c 0,1.45261 14.32877,1.27123 15.8,-0.2 z"
           id="path3951" />
        <path
           inkscape:connector-curvature="0"
           style="fill:#000000"
           d="M 68.434569,173.1232 C 60.55029,168.31532 52,151.49351 52,140.7899 L 52,138 l 76.13768,0 76.13768,0 -0.64399,5.47935 c -1.29809,11.04478 -8.41937,24.43947 -15.54683,29.24266 L 184.70423,175 128.10212,174.996 c -53.51953,-0.004 -56.769065,-0.10554 -59.667551,-1.87306 z"
           id="path3949" />
        <path
           inkscape:connector-curvature="0"
           style="fill:#000000"
           d="M 186.08454,170.72201 C 192.81037,166.18947 201,150.86155 201,142.80583 L 201,140 l -73.13929,0 -73.139292,0 0.570332,4.81556 c 1.087806,9.18482 8.596008,22.31612 14.988493,26.21379 3.095628,1.88749 5.324797,1.96332 57.821877,1.96691 l 54.60211,0.004 3.38031,-2.27799 z"
           id="path3947" />
        <path
           inkscape:connector-curvature="0"
           style="fill:#000000"
           d="m 68.279917,155.97058 c -2.491692,-0.99215 -3.804429,-4.74263 -2.784642,-7.95569 1.349341,-4.2514 9.289621,-4.62378 10.86834,-0.50971 2.218907,5.78238 -2.475533,10.69849 -8.083698,8.4654 z"
           id="path3945" />
        <path
           inkscape:connector-curvature="0"
           style="fill:#fdefef;fill-opacity:1"
           d="M 73.880024,152.22418 C 75.121503,149.90445 73.51225,147 70.985494,147 c -2.503061,0 -4.124428,3.00035 -2.851012,5.27582 1.254936,2.24245 4.533554,2.21298 5.745542,-0.0516 z"
           id="path3943" />
        <path
           inkscape:connector-curvature="0"
           style="fill:#000000"
           d="m 182,155.70512 c -3.09844,-1.55059 -4.03208,-7.60368 -1.49728,-9.70738 2.36099,-1.95945 7.53912,-1.66101 9.13883,0.52672 4.0248,5.50426 -1.566,12.22112 -7.64155,9.18066 z"
           id="path3941" />
        <path
           inkscape:connector-curvature="0"
           style="fill:#fdefef;fill-opacity:1"
           d="M 187.88002,152.22418 C 189.1215,149.90445 187.51225,147 184.98549,147 c -2.50306,0 -4.12442,3.00035 -2.85101,5.27582 1.25494,2.24245 4.53356,2.21298 5.74554,-0.0516 z"
           id="path3939" />
        <path
           inkscape:connector-curvature="0"
           style="fill:#000000"
           d="m 52.421606,131.6563 c -0.880441,-2.29439 1.328423,-13.24599 3.549884,-17.60041 2.886383,-5.65778 8.617242,-11.80543 13.170458,-14.128307 6.017739,-3.070021 7.480593,-2.606396 10.483082,3.322417 4.093089,8.08235 7.027427,11.35435 12.161825,13.56132 8.959355,3.85109 37.232065,5.38208 58.002555,3.14088 15.73579,-1.69794 20.51242,-4.82269 27.09445,-17.72456 2.46715,-4.836 4.21381,-5.238783 9.97419,-2.300057 4.78129,2.439237 10.10794,8.304987 13.03788,14.357427 2.26604,4.68103 4.27221,15.0887 3.36651,17.46499 -0.72975,1.91467 -150.105756,1.82189 -150.840834,-0.0937 z"
           id="path3925" />
        <path
           inkscape:connector-curvature="0"
           style="fill:#000000"
           d="m 70.730968,130.30701 c -0.972967,-0.25354 -2.322967,-0.23687 -3,0.0371 -0.677032,0.27393 0.119032,0.48137 1.769032,0.46099 1.65,-0.0204 2.203936,-0.2445 1.230968,-0.49804 z"
           id="path3923" />
        <path
           inkscape:connector-curvature="0"
           style="fill:#000000"
           d="m 187.73097,130.30701 c -0.97297,-0.25354 -2.32297,-0.23687 -3,0.0371 -0.67703,0.27393 0.11903,0.48137 1.76903,0.46099 1.65,-0.0204 2.20394,-0.2445 1.23097,-0.49804 z"
           id="path3921" />
        <path
           inkscape:connector-curvature="0"
           style="fill:#000000"
           d="m 62.588894,126.92327 c -4.33262,-5.14902 -3.006383,-14.41616 2.627901,-18.36257 2.253261,-1.57824 8.264363,-2.08076 11.238403,-0.93952 0.890325,0.34165 2.277129,1.8943 3.081787,3.45034 2.938746,5.68291 1.156608,13.92841 -3.75378,17.36778 -2.030845,1.42245 2.586688,1.5607 52.129145,1.5607 54.22587,0 54.35132,-0.005 51.85787,-1.96611 -3.40098,-2.67521 -5.04826,-7.07828 -4.62424,-12.36028 l 0.35402,-4.40994 -3.87648,3.877 c -5.11106,5.11174 -10.6175,6.61736 -28.62352,7.8265 -16.636,1.11714 -41.4742,-0.13753 -49.742389,-2.51267 C 87.095123,118.68425 82.65534,114.63669 78.053566,106.59362 76.293375,103.51713 74.413898,101 73.876949,101 c -1.946712,0 -6.44669,2.90249 -9.55762,6.16468 -4.197385,4.40147 -8.486025,13.13463 -9.092534,18.51556 l -0.4869,4.31976 5.218946,0 5.218946,0 -2.588893,-3.07673 z"
           id="path3919" />
        <path
           inkscape:connector-curvature="0"
           style="fill:#000000"
           d="m 200.65682,125.51288 c -1.31251,-9.5758 -10.46711,-22.42323 -17.17818,-24.1076 -1.41448,-0.35501 -2.67283,-0.47893 -2.79633,-0.27538 -0.1235,0.20356 -1.29868,2.35794 -2.61151,4.78753 l -2.38697,4.41743 2.38059,-1.66743 c 2.99734,-2.09942 9.79241,-2.15644 12.71879,-0.10673 3.18708,2.23232 5.21679,6.69365 5.21679,11.46656 0,3.22763 -0.63678,4.76336 -2.92308,7.04966 L 190.15385,130 l 5.559,0 5.559,0 -0.61503,-4.48712 z"
           id="path3917" />
        <path
           inkscape:connector-curvature="0"
           style="fill:#ffffff;fill-opacity:1"
           d="m 75.258635,125.25929 c 0.96725,-0.87169 2.254089,-3.23857 2.859642,-5.25973 2.936648,-9.80165 -8.158503,-14.97257 -13.765387,-6.41539 -5.705389,8.70753 3.391915,18.44662 10.905745,11.67512 z"
           id="path3915" />
        <path
           inkscape:connector-curvature="0"
           style="fill:#ffffff;fill-opacity:1"
           d="m 190.54424,125.71561 c 6.55243,-5.63617 0.33243,-18.40738 -7.95231,-16.32804 -2.61654,0.65671 -5.59489,5.08719 -5.58819,8.31277 0.006,2.73688 3.72782,8.25578 6.25258,9.27084 3.43882,1.38254 4.41681,1.21405 7.28792,-1.25557 z"
           id="path3913" />
        <path
           inkscape:connector-curvature="0"
           style="fill:#000000"
           d="m 109.87328,118.9087 c -16.266753,-1.1255 -22.750866,-4.57348 -28.280371,-15.03832 -3.196654,-6.04981 -2.359973,-6.567073 11.958143,-7.392911 18.643788,-1.075334 80.201808,-0.124614 81.586458,1.260046 1.64212,1.642118 0.38649,5.125155 -3.87986,10.762485 -4.26013,5.62912 -8.43966,8.05581 -16.34238,9.48861 -6.93936,1.25814 -32.58477,1.78201 -45.04199,0.92009 z"
           id="path3909" />
        <path
           inkscape:connector-curvature="0"
           style="fill:#000000"
           d="m 157.5,115.01388 c 5.64085,-1.74987 9.28335,-4.6028 12.64554,-9.90443 l 2.90774,-4.58503 -2.77664,-0.770264 c -7.85828,-2.179961 -84.636422,-1.727708 -86.875862,0.511734 -0.860541,0.86054 4.099898,8.13617 7.494697,10.9927 1.72951,1.45529 5.389703,3.05979 8.342939,3.65726 2.893876,0.58545 6.161586,1.26531 7.261586,1.51078 4.39489,0.98076 47.09752,-0.20214 51,-1.41275 z"
           id="path3907" />
        <path
           inkscape:connector-curvature="0"
           style="fill:#000000"
           d="m 52.634859,100.92742 c -4.440724,-3.493074 -3.053421,-8.974118 2.756778,-10.891657 4.358794,-1.438532 8.11357,-0.480248 10.624179,2.711473 2.594835,3.298798 2.502774,4.825083 -0.470361,7.798214 -3.164078,3.16408 -9.148624,3.34114 -12.910596,0.38197 z"
           id="path3905" />
        <path
           inkscape:connector-curvature="0"
           style="fill:#000000"
           d="m 63.75,98.755166 c 1.68697,-1.349651 1.572571,-2.741248 -0.404988,-4.926425 -3.150789,-3.481583 -10.986269,-1.39704 -10.194895,2.712239 0.737692,3.83053 6.956001,5.12945 10.599883,2.214186 z"
           id="path3903" />
        <path
           inkscape:connector-curvature="0"
           style="fill:#000000"
           d="m 190.45455,100.54545 c -3.05308,-3.053074 -3.11597,-5.591437 -0.20455,-8.256201 3.20002,-2.928909 6.25564,-3.607508 10.27338,-2.281534 C 209.48969,92.966867 206.62957,103 196.81969,103 c -2.81866,0 -4.59597,-0.68537 -6.36514,-2.45455 z"
           id="path3901" />
        <path
           inkscape:connector-curvature="0"
           style="fill:#000000"
           d="m 201.75,98.755166 c 1.87177,-1.497497 1.50693,-4.547293 -0.68426,-5.719982 -3.01308,-1.612553 -6.58465,-1.224265 -8.53203,0.927571 -4.24789,4.693863 3.98709,8.976005 9.21629,4.792411 z"
           id="path3899" />
        <path
           inkscape:connector-curvature="0"
           style="fill:#000000"
           d="m 71.396221,93.768897 c 0.355421,-1.777106 3.224171,-8.408502 6.375,-14.736435 C 84.57112,65.375957 85.541481,64.643866 99,63.016356 c 12.15038,-1.46932 45.81349,-1.491303 57.5,-0.03755 13.7436,1.709646 15.0551,2.636147 21.26322,15.021194 5.52278,11.017828 7.97461,17.5955 6.94319,18.626919 -0.33771,0.337713 -2.57448,0.320034 -4.9706,-0.03929 -4.33352,-0.649852 -4.37978,-0.700648 -8.74118,-9.598584 C 164.28581,73.301999 164.09084,73.133591 153.5,71.878256 148.55,71.291531 137.075,70.811483 128,70.811483 c -9.075,0 -20.55,0.480048 -25.5,1.066773 -10.595226,1.255855 -10.947839,1.560331 -17.586025,15.185255 -3.66738,7.527324 -4.680551,8.839804 -7.21523,9.34674 -6.196339,1.239268 -7.010414,0.898094 -6.302524,-2.641354 z"
           id="path3897" />
        <path
           inkscape:connector-curvature="0"
           style="fill:#000000"
           d="m 82.667343,85.124521 c 2.283598,-4.795787 5.453519,-10.112897 7.044268,-11.8158 2.649331,-2.836118 3.643877,-3.16811 11.840329,-3.952454 12.28494,-1.175583 48.51259,-0.864288 56.44806,0.485044 7.77401,1.321878 9.08958,2.649923 15.26401,15.408689 3.44142,7.111327 4.65132,8.75 6.46046,8.75 1.96789,0 2.11455,-0.293202 1.26475,-2.52835 C 178.25221,84.272753 170.31235,69.598525 168.53534,68.454734 164.11684,65.610708 153.5449,64.607255 128,64.607255 c -25.73491,0 -36.115895,1.001405 -40.647691,3.921093 -1.18123,0.761028 -4.463027,6.240979 -7.292882,12.177669 -2.829855,5.936691 -5.526509,11.496298 -5.992563,12.354683 -0.688298,1.267715 -0.350286,1.487743 1.800555,1.172067 2.222906,-0.326254 3.314367,-1.788225 6.799924,-9.108246 z"
           id="path3895" />
        <rect
           style="fill:#ffffff;fill-opacity:1;stroke:none"
           id="rect4479"
           width="59.938839"
           height="22.568663"
           x="99.751381"
           y="143.75197" />
      </g>
    </g>
    <path
       d="m 339.50103,123.53524 a 23.552055,22.547464 0 1 1 -47.10411,0 23.552055,22.547464 0 1 1 47.10411,0 z"
       sodipodi:ry="22.547464"
       sodipodi:rx="23.552055"
       sodipodi:cy="123.53524"
       sodipodi:cx="315.94897"
       id="path5996"
       style="fill:#ffffff;fill-opacity:1;stroke:none"
       sodipodi:type="arc"
       transform="matrix(0.99987027,0,0,0.99987027,11.014324,152.48497)"
       inkscape:export-filename="C:\DT2\www\assets\img\car.png"
       inkscape:export-xdpi="72"
       inkscape:export-ydpi="72" />
    <path
       d="m 339.50103,123.53524 a 23.552055,22.547464 0 1 1 -47.10411,0 23.552055,22.547464 0 1 1 47.10411,0 z"
       sodipodi:ry="22.547464"
       sodipodi:rx="23.552055"
       sodipodi:cy="123.53524"
       sodipodi:cx="315.94897"
       id="path5961"
       style="fill:#c00000;fill-opacity:1;stroke:none"
       sodipodi:type="arc"
       transform="matrix(0.91071272,0,0,0.91071272,39.609522,165.50934)"
       inkscape:export-filename="C:\DT2\www\assets\img\car.png"
       inkscape:export-xdpi="72"
       inkscape:export-ydpi="72" />
    <text
       xml:space="preserve"
       style="font-size:40px;font-style:normal;font-weight:normal;line-height:125%;letter-spacing:0px;word-spacing:0px;fill:#ffffff;fill-opacity:1;stroke:none;font-family:Sans"
       x="314.76505"
       y="291.80981"
       id="text5963"
       sodipodi:linespacing="125%"
       inkscape:export-filename="C:\DT2\www\assets\img\car.png"
       inkscape:export-xdpi="72"
       inkscape:export-ydpi="72"><tspan
         sodipodi:role="line"
         id="tspan5965"
         x="314.76505"
         y="291.80981">1</tspan></text>
  </g>
</svg>
