<?xml version="1.0" encoding="UTF-8" standalone="no"?>
<!-- Created with Inkscape (http://www.inkscape.org/) -->

<svg
   xmlns:dc="http://purl.org/dc/elements/1.1/"
   xmlns:cc="http://creativecommons.org/ns#"
   xmlns:rdf="http://www.w3.org/1999/02/22-rdf-syntax-ns#"
   xmlns:svg="http://www.w3.org/2000/svg"
   xmlns="http://www.w3.org/2000/svg"
   xmlns:sodipodi="http://sodipodi.sourceforge.net/DTD/sodipodi-0.dtd"
   xmlns:inkscape="http://www.inkscape.org/namespaces/inkscape"
   width="744.09448819"
   height="1052.3622047"
   id="svg3198"
   version="1.1"
   inkscape:version="0.48.4 r9939"
   sodipodi:docname="New document 4">
  <defs
     id="defs3200" />
  <sodipodi:namedview
     id="base"
     pagecolor="#ffffff"
     bordercolor="#666666"
     borderopacity="1.0"
     inkscape:pageopacity="0.0"
     inkscape:pageshadow="2"
     inkscape:zoom="15.307895"
     inkscape:cx="440.52319"
     inkscape:cy="556.96701"
     inkscape:document-units="px"
     inkscape:current-layer="g6282"
     showgrid="false"
     inkscape:window-width="1920"
     inkscape:window-height="1018"
     inkscape:window-x="1912"
     inkscape:window-y="-8"
     inkscape:window-maximized="1" />
  <metadata
     id="metadata3203">
    <rdf:RDF>
      <cc:Work
         rdf:about="">
        <dc:format>image/svg+xml</dc:format>
        <dc:type
           rdf:resource="http://purl.org/dc/dcmitype/StillImage" />
        <dc:title></dc:title>
      </cc:Work>
    </rdf:RDF>
  </metadata>
  <g
     inkscape:label="Layer 1"
     inkscape:groupmode="layer"
     id="layer1">
    <g
       id="g6282"
       transform="matrix(0.33333333,0,0,0.33333333,394.02879,276.76527)">
      <path
         style="fill:#787878;fill-opacity:1;stroke:#fffcff;stroke-width:1;stroke-linejoin:round;stroke-miterlimit:4;stroke-opacity:1"
         d="m 174.25793,442.34415 72.08664,0 c 1.108,0 2,0.892 2,2 l 0,65.93025 c 0,1.108 -0.892,2 -2,2 l -72.08664,0 c -1.108,0 -2,-0.892 -2,-2 l 0,-65.93025 c 0,-1.108 0.892,-2 2,-2 z"
         id="rect4635" />
      <path
         style="fill:#787878;fill-opacity:1;stroke:#fffcff;stroke-width:2;stroke-linejoin:round;stroke-miterlimit:4;stroke-opacity:1"
         d="m 192.25352,433.42526 2.78782,0 c 1.108,0 2,0.892 2,2 l 0,13.36417 c 0,1.108 -0.892,2 -2,2 l -2.78782,0 c -1.108,0 -2,-0.892 -2,-2 l 0,-13.36417 c 0,-1.108 0.892,-2 2,-2 z"
         id="rect5145" />
      <path
         style="fill:#787878;fill-opacity:1;stroke:#fffcff;stroke-width:2;stroke-linejoin:round;stroke-miterlimit:4;stroke-opacity:1"
         d="m 226.35045,433.42526 2.78781,0 c 1.108,0 2,0.892 2,2 l 0,13.36417 c 0,1.108 -0.892,2 -2,2 l -2.78781,0 c -1.108,0 -2,-0.892 -2,-2 l 0,-13.36417 c 0,-1.108 0.892,-2 2,-2 z"
         id="rect5147" />
      <path
         style="fill:#787878;fill-opacity:1;stroke:#fffcff;stroke-width:2;stroke-linejoin:round;stroke-miterlimit:4;stroke-opacity:1"
         d="m 178.41432,455.91977 63.93172,0 0,52.25037 -63.93172,0 z"
         id="rect5149" />
      <path
         style="fill:#787878;fill-opacity:1;stroke:none"
         d="m 234.66014,470.2012 c -14.5914,0 -26.4375,11.31224 -26.4375,25.28125 0,6.22044 2.35558,11.91 6.25,16.3125 l 33.40625,0 0,-38.21875 c -3.88917,-2.15682 -8.40078,-3.375 -13.21875,-3.375 z"
         id="path5280"
         inkscape:connector-curvature="0" />
      <path
         transform="translate(-81.25896,372.21639)"
         style="fill:#ffffff;fill-opacity:1;stroke:none"
         d="m 339.50103,123.53524 c 0,12.45262 -10.54461,22.54746 -23.55206,22.54746 -13.00744,0 -23.55205,-10.09484 -23.55205,-22.54746 0,-12.45262 10.54461,-22.54746 23.55205,-22.54746 13.00745,0 23.55206,10.09484 23.55206,22.54746 z"
         id="path5213" />
      <g
         id="g4189"
         transform="translate(213.61527,102.49613)">
        <path
           inkscape:connector-curvature="0"
           id="path4086"
           d="m 72.998698,517.43919 0,52.21875 65.437502,0 0,-52.21875 -65.437502,0 z m 4.21875,6.5625 11.53125,0 0,11.15625 -11.53125,0 0,-11.15625 z m 15.375,0 11.625002,0 0,11.15625 -11.625002,0 0,-11.15625 z m 15.093752,0 11.625,0 0,11.15625 -11.625,0 0,-11.15625 z m 15,0 11.625,0 0,11.15625 -11.625,0 0,-11.15625 z m -45.468752,14.71875 11.53125,0 0,11.25 -11.53125,0 0,-11.25 z m 15.375,0 11.625002,0 0,11.25 -11.625002,0 0,-11.25 z m 15.093752,0 11.625,0 0,11.25 -11.625,0 0,-11.25 z m 15,0 11.625,0 0,11.25 -11.625,0 0,-11.25 z m -45.468752,14.8125 11.53125,0 0,11.15625 -11.53125,0 0,-11.15625 z m 15.375,0 11.625002,0 0,11.15625 -11.625002,0 0,-11.15625 z m 15.093752,0 11.625,0 0,11.15625 -11.625,0 0,-11.15625 z m 15,0 11.625,0 0,11.15625 -11.625,0 0,-11.15625 z"
           style="fill:#eff0fa;fill-opacity:1;stroke:none" />
        <path
           sodipodi:nodetypes="sssssssscssssccsssscsccccc"
           inkscape:connector-curvature="0"
           id="path4138"
           transform="matrix(3,0,0,3,-1182.0864,-830.29582)"
           d="m 415.40625,442.75 c -0.42258,0 -0.75,0.35396 -0.75,0.78125 l 0,25.4375 c 0,0.42729 0.32742,0.75 0.75,0.75 l 27.5,0 c 0.42258,0 0.78125,-0.32271 0.78125,-0.75 l 0,-25.4375 c 0,-0.42729 -0.35867,-0.78125 -0.78125,-0.78125 l -7.46875,0 0,2.6875 c 0,0.36933 -0.28692,0.65625 -0.65625,0.65625 l -0.9375,0 c -0.36933,0 -0.65625,-0.28692 -0.65625,-0.65625 l 0,-2.6875 -7.78125,0 0,2.6363 c 0,0.36933 -0.28692,0.65625 -0.65625,0.65625 l -0.9375,0 c -0.36933,0 -0.65625,-0.28692 -0.65625,-0.65625 l 0,-2.6363 z m 1.625,5.25 24.375,0 0,20.15625 -24.375,0 z"
           style="fill:#eff0fa;fill-opacity:1;stroke:none" />
        <path
           id="path4184"
           d="m 119.97113,491.04259 1.74146,0 c 0.69212,0 1.24932,0.77119 1.24932,1.72913 l 0,11.55418 c 0,0.95794 -0.5572,1.72913 -1.24932,1.72913 l -1.74146,0 c -0.69213,0 -1.24933,-0.77119 -1.24933,-1.72913 l 0,-11.55418 c 0,-0.95794 0.5572,-1.72913 1.24933,-1.72913 z"
           style="fill:#eff0fa;fill-opacity:1;stroke:none"
           inkscape:connector-curvature="0" />
        <path
           inkscape:connector-curvature="0"
           style="fill:#eff0fa;fill-opacity:1;stroke:none"
           d="m 89.986602,491.04259 1.74146,0 c 0.69212,0 1.24932,0.77119 1.24932,1.72913 l 0,11.55418 c 0,0.95794 -0.5572,1.72913 -1.24932,1.72913 l -1.74146,0 c -0.69213,0 -1.24933,-0.77119 -1.24933,-1.72913 l 0,-11.55418 c 0,-0.95794 0.5572,-1.72913 1.24933,-1.72913 z"
           id="path4187" />
      </g>
      <g
         id="g4195"
         transform="translate(0,102.30016)">
        <path
           style="fill:#eff0fa;fill-opacity:1;stroke:none"
           d="m 72.998698,517.43919 0,52.21875 65.437502,0 0,-52.21875 -65.437502,0 z m 4.21875,6.5625 11.53125,0 0,11.15625 -11.53125,0 0,-11.15625 z m 15.375,0 11.625002,0 0,11.15625 -11.625002,0 0,-11.15625 z m 15.093752,0 11.625,0 0,11.15625 -11.625,0 0,-11.15625 z m 15,0 11.625,0 0,11.15625 -11.625,0 0,-11.15625 z m -45.468752,14.71875 11.53125,0 0,11.25 -11.53125,0 0,-11.25 z m 15.375,0 11.625002,0 0,11.25 -11.625002,0 0,-11.25 z m 15.093752,0 11.625,0 0,11.25 -11.625,0 0,-11.25 z m 15,0 11.625,0 0,11.25 -11.625,0 0,-11.25 z m -45.468752,14.8125 11.53125,0 0,11.15625 -11.53125,0 0,-11.15625 z m 15.375,0 11.625002,0 0,11.15625 -11.625002,0 0,-11.15625 z m 15.093752,0 11.625,0 0,11.15625 -11.625,0 0,-11.15625 z m 15,0 11.625,0 0,11.15625 -11.625,0 0,-11.15625 z"
           id="path4197"
           inkscape:connector-curvature="0" />
        <path
           style="fill:#eff0fa;fill-opacity:1;stroke:none"
           d="m 415.40625,442.75 c -0.42258,0 -0.75,0.35396 -0.75,0.78125 l 0,25.4375 c 0,0.42729 0.32742,0.75 0.75,0.75 l 27.5,0 c 0.42258,0 0.78125,-0.32271 0.78125,-0.75 l 0,-25.4375 c 0,-0.42729 -0.35867,-0.78125 -0.78125,-0.78125 l -7.46875,0 0,2.6875 c 0,0.36933 -0.28692,0.65625 -0.65625,0.65625 l -0.9375,0 c -0.36933,0 -0.65625,-0.28692 -0.65625,-0.65625 l 0,-2.6875 -7.78125,0 0,2.6363 c 0,0.36933 -0.28692,0.65625 -0.65625,0.65625 l -0.9375,0 c -0.36933,0 -0.65625,-0.28692 -0.65625,-0.65625 l 0,-2.6363 z m 1.625,5.25 24.375,0 0,20.15625 -24.375,0 z"
           transform="matrix(3,0,0,3,-1182.0864,-830.29582)"
           id="path4199"
           inkscape:connector-curvature="0"
           sodipodi:nodetypes="sssssssscssssccsssscsccccc" />
        <path
           inkscape:connector-curvature="0"
           style="fill:#eff0fa;fill-opacity:1;stroke:none"
           d="m 119.97113,491.04259 1.74146,0 c 0.69212,0 1.24932,0.77119 1.24932,1.72913 l 0,11.55418 c 0,0.95794 -0.5572,1.72913 -1.24932,1.72913 l -1.74146,0 c -0.69213,0 -1.24933,-0.77119 -1.24933,-1.72913 l 0,-11.55418 c 0,-0.95794 0.5572,-1.72913 1.24933,-1.72913 z"
           id="path4201" />
        <path
           id="path4203"
           d="m 89.986602,491.04259 1.74146,0 c 0.69212,0 1.24932,0.77119 1.24932,1.72913 l 0,11.55418 c 0,0.95794 -0.5572,1.72913 -1.24932,1.72913 l -1.74146,0 c -0.69213,0 -1.24933,-0.77119 -1.24933,-1.72913 l 0,-11.55418 c 0,-0.95794 0.5572,-1.72913 1.24933,-1.72913 z"
           style="fill:#eff0fa;fill-opacity:1;stroke:none"
           inkscape:connector-curvature="0" />
      </g>
      <path
         inkscape:connector-curvature="0"
         id="path4205"
         d="m 157.50602,666.15963 c 0,14.42546 -12.21518,26.11961 -27.28338,26.11961 -15.06818,0 -27.28335,-11.69415 -27.28335,-26.11961 0,-14.42547 12.21517,-26.11962 27.28335,-26.11962 15.0682,0 27.28338,11.69415 27.28338,26.11962 z"
         style="fill:#ffffff;fill-opacity:1;stroke:#ffffff;stroke-width:1;stroke-opacity:0" />
      <path
         style="fill:#00c047;fill-opacity:1;stroke:none"
         d="m 156.55621,666.84555 c 0,13.39723 -11.34449,24.25783 -25.33864,24.25783 -13.99414,0 -25.33862,-10.8606 -25.33862,-24.25783 0,-13.39723 11.34448,-24.25783 25.33862,-24.25783 13.99415,0 25.33864,10.8606 25.33864,24.25783 z"
         id="path5226"
         inkscape:connector-curvature="0" />
      <g
         id="g4221"
         transform="translate(108,0)">
        <g
           id="g4207"
           transform="translate(0,102.30016)">
          <path
             style="fill:#eff0fa;fill-opacity:1;stroke:none"
             d="m 72.998698,517.43919 0,52.21875 65.437502,0 0,-52.21875 -65.437502,0 z m 4.21875,6.5625 11.53125,0 0,11.15625 -11.53125,0 0,-11.15625 z m 15.375,0 11.625002,0 0,11.15625 -11.625002,0 0,-11.15625 z m 15.093752,0 11.625,0 0,11.15625 -11.625,0 0,-11.15625 z m 15,0 11.625,0 0,11.15625 -11.625,0 0,-11.15625 z m -45.468752,14.71875 11.53125,0 0,11.25 -11.53125,0 0,-11.25 z m 15.375,0 11.625002,0 0,11.25 -11.625002,0 0,-11.25 z m 15.093752,0 11.625,0 0,11.25 -11.625,0 0,-11.25 z m 15,0 11.625,0 0,11.25 -11.625,0 0,-11.25 z m -45.468752,14.8125 11.53125,0 0,11.15625 -11.53125,0 0,-11.15625 z m 15.375,0 11.625002,0 0,11.15625 -11.625002,0 0,-11.15625 z m 15.093752,0 11.625,0 0,11.15625 -11.625,0 0,-11.15625 z m 15,0 11.625,0 0,11.15625 -11.625,0 0,-11.15625 z"
             id="path4209"
             inkscape:connector-curvature="0" />
          <path
             style="fill:#eff0fa;fill-opacity:1;stroke:none"
             d="m 415.40625,442.75 c -0.42258,0 -0.75,0.35396 -0.75,0.78125 l 0,25.4375 c 0,0.42729 0.32742,0.75 0.75,0.75 l 27.5,0 c 0.42258,0 0.78125,-0.32271 0.78125,-0.75 l 0,-25.4375 c 0,-0.42729 -0.35867,-0.78125 -0.78125,-0.78125 l -7.46875,0 0,2.6875 c 0,0.36933 -0.28692,0.65625 -0.65625,0.65625 l -0.9375,0 c -0.36933,0 -0.65625,-0.28692 -0.65625,-0.65625 l 0,-2.6875 -7.78125,0 0,2.6363 c 0,0.36933 -0.28692,0.65625 -0.65625,0.65625 l -0.9375,0 c -0.36933,0 -0.65625,-0.28692 -0.65625,-0.65625 l 0,-2.6363 z m 1.625,5.25 24.375,0 0,20.15625 -24.375,0 z"
             transform="matrix(3,0,0,3,-1182.0864,-830.29582)"
             id="path4211"
             inkscape:connector-curvature="0"
             sodipodi:nodetypes="sssssssscssssccsssscsccccc" />
          <path
             inkscape:connector-curvature="0"
             style="fill:#eff0fa;fill-opacity:1;stroke:none"
             d="m 119.97113,491.04259 1.74146,0 c 0.69212,0 1.24932,0.77119 1.24932,1.72913 l 0,11.55418 c 0,0.95794 -0.5572,1.72913 -1.24932,1.72913 l -1.74146,0 c -0.69213,0 -1.24933,-0.77119 -1.24933,-1.72913 l 0,-11.55418 c 0,-0.95794 0.5572,-1.72913 1.24933,-1.72913 z"
             id="path4213" />
          <path
             id="path4215"
             d="m 89.986602,491.04259 1.74146,0 c 0.69212,0 1.24932,0.77119 1.24932,1.72913 l 0,11.55418 c 0,0.95794 -0.5572,1.72913 -1.24932,1.72913 l -1.74146,0 c -0.69213,0 -1.24933,-0.77119 -1.24933,-1.72913 l 0,-11.55418 c 0,-0.95794 0.5572,-1.72913 1.24933,-1.72913 z"
             style="fill:#eff0fa;fill-opacity:1;stroke:none"
             inkscape:connector-curvature="0" />
        </g>
        <path
           inkscape:connector-curvature="0"
           id="path4217"
           d="m 157.50602,666.15963 c 0,14.42546 -12.21518,26.11961 -27.28338,26.11961 -15.06818,0 -27.28335,-11.69415 -27.28335,-26.11961 0,-14.42547 12.21517,-26.11962 27.28335,-26.11962 15.0682,0 27.28338,11.69415 27.28338,26.11962 z"
           style="fill:#ffffff;fill-opacity:1;stroke:#ffffff;stroke-width:1;stroke-opacity:0" />
        <path
           style="fill:#c00000;fill-opacity:1;stroke:none"
           d="m 156.55621,666.84555 c 0,13.39723 -11.34449,24.25783 -25.33864,24.25783 -13.99414,0 -25.33862,-10.8606 -25.33862,-24.25783 0,-13.39723 11.34448,-24.25783 25.33862,-24.25783 13.99415,0 25.33864,10.8606 25.33864,24.25783 z"
           id="path4219"
           inkscape:connector-curvature="0" />
      </g>
    </g>
  </g>
</svg>
