<?xml version="1.0" encoding="UTF-8" standalone="no"?>
<!-- Created with Inkscape (http://www.inkscape.org/) -->

<svg
   xmlns:dc="http://purl.org/dc/elements/1.1/"
   xmlns:cc="http://creativecommons.org/ns#"
   xmlns:rdf="http://www.w3.org/1999/02/22-rdf-syntax-ns#"
   xmlns:svg="http://www.w3.org/2000/svg"
   xmlns="http://www.w3.org/2000/svg"
   xmlns:sodipodi="http://sodipodi.sourceforge.net/DTD/sodipodi-0.dtd"
   xmlns:inkscape="http://www.inkscape.org/namespaces/inkscape"
   width="640px"
   height="480px"
   id="svg4260"
   version="1.1"
   inkscape:version="0.48.4 r9939"
   sodipodi:docname="calendar-bg.svg">
  <defs
     id="defs4262" />
  <sodipodi:namedview
     id="base"
     pagecolor="#ffffff"
     bordercolor="#666666"
     borderopacity="1.0"
     inkscape:pageopacity="0.0"
     inkscape:pageshadow="2"
     inkscape:zoom="3.63917"
     inkscape:cx="356.10385"
     inkscape:cy="229.11348"
     inkscape:current-layer="layer1"
     inkscape:document-units="px"
     showgrid="false"
     inkscape:window-width="1920"
     inkscape:window-height="1018"
     inkscape:window-x="1912"
     inkscape:window-y="-8"
     inkscape:window-maximized="1" />
  <metadata
     id="metadata4265">
    <rdf:RDF>
      <cc:Work
         rdf:about="">
        <dc:format>image/svg+xml</dc:format>
        <dc:type
           rdf:resource="http://purl.org/dc/dcmitype/StillImage" />
        <dc:title></dc:title>
      </cc:Work>
    </rdf:RDF>
  </metadata>
  <g
     id="layer1"
     inkscape:label="Layer 1"
     inkscape:groupmode="layer">
    <g
       id="g4189"
       transform="matrix(0.28912778,0,0,0.3017321,373.35314,75.043238)"
       inkscape:export-filename="C:\DT2\www\assets\img\calendar.png"
       inkscape:export-xdpi="72"
       inkscape:export-ydpi="72">
      <path
         inkscape:connector-curvature="0"
         id="path4086"
         d="m 72.998698,517.43919 0,52.21875 65.437502,0 0,-52.21875 -65.437502,0 z m 4.21875,6.5625 11.53125,0 0,11.15625 -11.53125,0 0,-11.15625 z m 15.375,0 11.625002,0 0,11.15625 -11.625002,0 0,-11.15625 z m 15.093752,0 11.625,0 0,11.15625 -11.625,0 0,-11.15625 z m 15,0 11.625,0 0,11.15625 -11.625,0 0,-11.15625 z m -45.468752,14.71875 11.53125,0 0,11.25 -11.53125,0 0,-11.25 z m 15.375,0 11.625002,0 0,11.25 -11.625002,0 0,-11.25 z m 15.093752,0 11.625,0 0,11.25 -11.625,0 0,-11.25 z m 15,0 11.625,0 0,11.25 -11.625,0 0,-11.25 z m -45.468752,14.8125 11.53125,0 0,11.15625 -11.53125,0 0,-11.15625 z m 15.375,0 11.625002,0 0,11.15625 -11.625002,0 0,-11.15625 z m 15.093752,0 11.625,0 0,11.15625 -11.625,0 0,-11.15625 z m 15,0 11.625,0 0,11.15625 -11.625,0 0,-11.15625 z"
         style="fill:#eff0fa;fill-opacity:1;stroke:none" />
      <path
         sodipodi:nodetypes="sssssssscssssccsssscsccccc"
         inkscape:connector-curvature="0"
         id="path4138"
         transform="matrix(3,0,0,3,-1182.0864,-830.29582)"
         d="m 415.40625,442.75 c -0.42258,0 -0.75,0.35396 -0.75,0.78125 l 0,25.4375 c 0,0.42729 0.32742,0.75 0.75,0.75 l 27.5,0 c 0.42258,0 0.78125,-0.32271 0.78125,-0.75 l 0,-25.4375 c 0,-0.42729 -0.35867,-0.78125 -0.78125,-0.78125 l -7.46875,0 0,2.6875 c 0,0.36933 -0.28692,0.65625 -0.65625,0.65625 l -0.9375,0 c -0.36933,0 -0.65625,-0.28692 -0.65625,-0.65625 l 0,-2.6875 -7.78125,0 0,2.6363 c 0,0.36933 -0.28692,0.65625 -0.65625,0.65625 l -0.9375,0 c -0.36933,0 -0.65625,-0.28692 -0.65625,-0.65625 l 0,-2.6363 z m 1.625,5.25 24.375,0 0,20.15625 -24.375,0 z"
         style="fill:#eff0fa;fill-opacity:1;stroke:none" />
      <path
         id="path4184"
         d="m 119.97113,491.04259 1.74146,0 c 0.69212,0 1.24932,0.77119 1.24932,1.72913 l 0,11.55418 c 0,0.95794 -0.5572,1.72913 -1.24932,1.72913 l -1.74146,0 c -0.69213,0 -1.24933,-0.77119 -1.24933,-1.72913 l 0,-11.55418 c 0,-0.95794 0.5572,-1.72913 1.24933,-1.72913 z"
         style="fill:#eff0fa;fill-opacity:1;stroke:none"
         inkscape:connector-curvature="0" />
      <path
         inkscape:connector-curvature="0"
         style="fill:#eff0fa;fill-opacity:1;stroke:none"
         d="m 89.986602,491.04259 1.74146,0 c 0.69212,0 1.24932,0.77119 1.24932,1.72913 l 0,11.55418 c 0,0.95794 -0.5572,1.72913 -1.24932,1.72913 l -1.74146,0 c -0.69213,0 -1.24933,-0.77119 -1.24933,-1.72913 l 0,-11.55418 c 0,-0.95794 0.5572,-1.72913 1.24933,-1.72913 z"
         id="path4187" />
    </g>
    <g
       id="g4195"
       transform="matrix(0.28912778,0,0,0.3017321,284.4956,74.984101)"
       inkscape:export-filename="C:\DT2\www\assets\img\calendar.png"
       inkscape:export-xdpi="72"
       inkscape:export-ydpi="72">
      <path
         style="fill:#eff0fa;fill-opacity:1;stroke:none"
         d="m 72.998698,517.43919 0,52.21875 65.437502,0 0,-52.21875 -65.437502,0 z m 4.21875,6.5625 11.53125,0 0,11.15625 -11.53125,0 0,-11.15625 z m 15.375,0 11.625002,0 0,11.15625 -11.625002,0 0,-11.15625 z m 15.093752,0 11.625,0 0,11.15625 -11.625,0 0,-11.15625 z m 15,0 11.625,0 0,11.15625 -11.625,0 0,-11.15625 z m -45.468752,14.71875 11.53125,0 0,11.25 -11.53125,0 0,-11.25 z m 15.375,0 11.625002,0 0,11.25 -11.625002,0 0,-11.25 z m 15.093752,0 11.625,0 0,11.25 -11.625,0 0,-11.25 z m 15,0 11.625,0 0,11.25 -11.625,0 0,-11.25 z m -45.468752,14.8125 11.53125,0 0,11.15625 -11.53125,0 0,-11.15625 z m 15.375,0 11.625002,0 0,11.15625 -11.625002,0 0,-11.15625 z m 15.093752,0 11.625,0 0,11.15625 -11.625,0 0,-11.15625 z m 15,0 11.625,0 0,11.15625 -11.625,0 0,-11.15625 z"
         id="path4197"
         inkscape:connector-curvature="0" />
      <path
         style="fill:#eff0fa;fill-opacity:1;stroke:none"
         d="m 415.40625,442.75 c -0.42258,0 -0.75,0.35396 -0.75,0.78125 l 0,25.4375 c 0,0.42729 0.32742,0.75 0.75,0.75 l 27.5,0 c 0.42258,0 0.78125,-0.32271 0.78125,-0.75 l 0,-25.4375 c 0,-0.42729 -0.35867,-0.78125 -0.78125,-0.78125 l -7.46875,0 0,2.6875 c 0,0.36933 -0.28692,0.65625 -0.65625,0.65625 l -0.9375,0 c -0.36933,0 -0.65625,-0.28692 -0.65625,-0.65625 l 0,-2.6875 -7.78125,0 0,2.6363 c 0,0.36933 -0.28692,0.65625 -0.65625,0.65625 l -0.9375,0 c -0.36933,0 -0.65625,-0.28692 -0.65625,-0.65625 l 0,-2.6363 z m 1.625,5.25 24.375,0 0,20.15625 -24.375,0 z"
         transform="matrix(3,0,0,3,-1182.0864,-830.29582)"
         id="path4199"
         inkscape:connector-curvature="0"
         sodipodi:nodetypes="sssssssscssssccsssscsccccc" />
      <path
         inkscape:connector-curvature="0"
         style="fill:#eff0fa;fill-opacity:1;stroke:none"
         d="m 119.97113,491.04259 1.74146,0 c 0.69212,0 1.24932,0.77119 1.24932,1.72913 l 0,11.55418 c 0,0.95794 -0.5572,1.72913 -1.24932,1.72913 l -1.74146,0 c -0.69213,0 -1.24933,-0.77119 -1.24933,-1.72913 l 0,-11.55418 c 0,-0.95794 0.5572,-1.72913 1.24933,-1.72913 z"
         id="path4201" />
      <path
         id="path4203"
         d="m 89.986602,491.04259 1.74146,0 c 0.69212,0 1.24932,0.77119 1.24932,1.72913 l 0,11.55418 c 0,0.95794 -0.5572,1.72913 -1.24932,1.72913 l -1.74146,0 c -0.69213,0 -1.24933,-0.77119 -1.24933,-1.72913 l 0,-11.55418 c 0,-0.95794 0.5572,-1.72913 1.24933,-1.72913 z"
         style="fill:#eff0fa;fill-opacity:1;stroke:none"
         inkscape:connector-curvature="0" />
    </g>
    <path
       inkscape:connector-curvature="0"
       id="path4205"
       d="m 330.03496,245.11861 c 0,4.35261 -3.53174,7.88112 -7.88838,7.88112 -4.35664,0 -7.88838,-3.52851 -7.88838,-7.88112 0,-4.35263 3.53174,-7.88113 7.88838,-7.88113 4.35664,0 7.88838,3.5285 7.88838,7.88113 z"
       style="fill:#ffffff;fill-opacity:1;stroke:#ffffff;stroke-width:0.29536271;stroke-opacity:0"
       inkscape:export-filename="C:\DT2\www\assets\img\calendar.png"
       inkscape:export-xdpi="72"
       inkscape:export-ydpi="72" />
    <path
       style="fill:#00c047;fill-opacity:1;stroke:none"
       d="m 329.76035,245.32557 c 0,4.04237 -3.28001,7.31937 -7.32611,7.31937 -4.0461,0 -7.32611,-3.277 -7.32611,-7.31937 0,-4.04238 3.28001,-7.31938 7.32611,-7.31938 4.0461,0 7.32611,3.277 7.32611,7.31938 z"
       id="path5226"
       inkscape:connector-curvature="0"
       inkscape:export-filename="C:\DT2\www\assets\img\calendar.png"
       inkscape:export-xdpi="72"
       inkscape:export-ydpi="72" />
    <g
       id="g4221"
       transform="matrix(0.28912778,0,0,0.3017321,328.91158,44.116863)"
       inkscape:export-filename="C:\DT2\www\assets\img\calendar.png"
       inkscape:export-xdpi="72"
       inkscape:export-ydpi="72">
      <g
         id="g4207"
         transform="translate(0,102.30016)">
        <path
           style="fill:#eff0fa;fill-opacity:1;stroke:none"
           d="m 72.998698,517.43919 0,52.21875 65.437502,0 0,-52.21875 -65.437502,0 z m 4.21875,6.5625 11.53125,0 0,11.15625 -11.53125,0 0,-11.15625 z m 15.375,0 11.625002,0 0,11.15625 -11.625002,0 0,-11.15625 z m 15.093752,0 11.625,0 0,11.15625 -11.625,0 0,-11.15625 z m 15,0 11.625,0 0,11.15625 -11.625,0 0,-11.15625 z m -45.468752,14.71875 11.53125,0 0,11.25 -11.53125,0 0,-11.25 z m 15.375,0 11.625002,0 0,11.25 -11.625002,0 0,-11.25 z m 15.093752,0 11.625,0 0,11.25 -11.625,0 0,-11.25 z m 15,0 11.625,0 0,11.25 -11.625,0 0,-11.25 z m -45.468752,14.8125 11.53125,0 0,11.15625 -11.53125,0 0,-11.15625 z m 15.375,0 11.625002,0 0,11.15625 -11.625002,0 0,-11.15625 z m 15.093752,0 11.625,0 0,11.15625 -11.625,0 0,-11.15625 z m 15,0 11.625,0 0,11.15625 -11.625,0 0,-11.15625 z"
           id="path4209"
           inkscape:connector-curvature="0" />
        <path
           style="fill:#eff0fa;fill-opacity:1;stroke:none"
           d="m 415.40625,442.75 c -0.42258,0 -0.75,0.35396 -0.75,0.78125 l 0,25.4375 c 0,0.42729 0.32742,0.75 0.75,0.75 l 27.5,0 c 0.42258,0 0.78125,-0.32271 0.78125,-0.75 l 0,-25.4375 c 0,-0.42729 -0.35867,-0.78125 -0.78125,-0.78125 l -7.46875,0 0,2.6875 c 0,0.36933 -0.28692,0.65625 -0.65625,0.65625 l -0.9375,0 c -0.36933,0 -0.65625,-0.28692 -0.65625,-0.65625 l 0,-2.6875 -7.78125,0 0,2.6363 c 0,0.36933 -0.28692,0.65625 -0.65625,0.65625 l -0.9375,0 c -0.36933,0 -0.65625,-0.28692 -0.65625,-0.65625 l 0,-2.6363 z m 1.625,5.25 24.375,0 0,20.15625 -24.375,0 z"
           transform="matrix(3,0,0,3,-1182.0864,-830.29582)"
           id="path4211"
           inkscape:connector-curvature="0"
           sodipodi:nodetypes="sssssssscssssccsssscsccccc" />
        <path
           inkscape:connector-curvature="0"
           style="fill:#eff0fa;fill-opacity:1;stroke:none"
           d="m 119.97113,491.04259 1.74146,0 c 0.69212,0 1.24932,0.77119 1.24932,1.72913 l 0,11.55418 c 0,0.95794 -0.5572,1.72913 -1.24932,1.72913 l -1.74146,0 c -0.69213,0 -1.24933,-0.77119 -1.24933,-1.72913 l 0,-11.55418 c 0,-0.95794 0.5572,-1.72913 1.24933,-1.72913 z"
           id="path4213" />
        <path
           id="path4215"
           d="m 89.986602,491.04259 1.74146,0 c 0.69212,0 1.24932,0.77119 1.24932,1.72913 l 0,11.55418 c 0,0.95794 -0.5572,1.72913 -1.24932,1.72913 l -1.74146,0 c -0.69213,0 -1.24933,-0.77119 -1.24933,-1.72913 l 0,-11.55418 c 0,-0.95794 0.5572,-1.72913 1.24933,-1.72913 z"
           style="fill:#eff0fa;fill-opacity:1;stroke:none"
           inkscape:connector-curvature="0" />
      </g>
      <path
         inkscape:connector-curvature="0"
         id="path4217"
         d="m 157.50602,666.15963 c 0,14.42546 -12.21518,26.11961 -27.28338,26.11961 -15.06818,0 -27.28335,-11.69415 -27.28335,-26.11961 0,-14.42547 12.21517,-26.11962 27.28335,-26.11962 15.0682,0 27.28338,11.69415 27.28338,26.11962 z"
         style="fill:#ffffff;fill-opacity:1;stroke:#ffffff;stroke-width:1;stroke-opacity:0" />
      <path
         style="fill:#c00000;fill-opacity:1;stroke:none"
         d="m 156.55621,666.84555 c 0,13.39723 -11.34449,24.25783 -25.33864,24.25783 -13.99414,0 -25.33862,-10.8606 -25.33862,-24.25783 0,-13.39723 11.34448,-24.25783 25.33862,-24.25783 13.99415,0 25.33864,10.8606 25.33864,24.25783 z"
         id="path4219"
         inkscape:connector-curvature="0" />
    </g>
  </g>
</svg>
