<?xml version="1.0" encoding="UTF-8" standalone="no"?>
<!-- Created with Inkscape (http://www.inkscape.org/) -->

<svg
   xmlns:dc="http://purl.org/dc/elements/1.1/"
   xmlns:cc="http://creativecommons.org/ns#"
   xmlns:rdf="http://www.w3.org/1999/02/22-rdf-syntax-ns#"
   xmlns:svg="http://www.w3.org/2000/svg"
   xmlns="http://www.w3.org/2000/svg"
   xmlns:sodipodi="http://sodipodi.sourceforge.net/DTD/sodipodi-0.dtd"
   xmlns:inkscape="http://www.inkscape.org/namespaces/inkscape"
   width="744.09448819"
   height="1052.3622047"
   id="svg4910"
   version="1.1"
   inkscape:version="0.48.4 r9939"
   sodipodi:docname="New document 6">
  <defs
     id="defs4912" />
  <sodipodi:namedview
     id="base"
     pagecolor="#ffffff"
     bordercolor="#666666"
     borderopacity="1.0"
     inkscape:pageopacity="0.0"
     inkscape:pageshadow="2"
     inkscape:zoom="12.370647"
     inkscape:cx="249.60869"
     inkscape:cy="551.18974"
     inkscape:document-units="px"
     inkscape:current-layer="layer1"
     showgrid="false"
     showguides="true"
     inkscape:guide-bbox="true"
     inkscape:window-width="1920"
     inkscape:window-height="1018"
     inkscape:window-x="1912"
     inkscape:window-y="-8"
     inkscape:window-maximized="1" />
  <metadata
     id="metadata4915">
    <rdf:RDF>
      <cc:Work
         rdf:about="">
        <dc:format>image/svg+xml</dc:format>
        <dc:type
           rdf:resource="http://purl.org/dc/dcmitype/StillImage" />
        <dc:title></dc:title>
      </cc:Work>
    </rdf:RDF>
  </metadata>
  <g
     inkscape:label="Layer 1"
     inkscape:groupmode="layer"
     id="layer1">
    <path
       style="fill:#fafafa;fill-opacity:1;fill-rule:nonzero;stroke:none"
       d="m 237.65601,491.52374 -6.41967,0.21885 0.21074,9.82403 1.71029,0 0.64036,8.75407 7.89488,0 0.8592,-8.75407 2.13178,-0.21886 -0.83488,-9.82402 -6.1927,0 z"
       id="rect5449"
       inkscape:connector-curvature="0"
       inkscape:export-filename="C:\DT2\www\assets\img\users.png"
       inkscape:export-xdpi="72"
       inkscape:export-ydpi="72" />
    <path
       d="m 327.65133,421.34525 a 18.11138,16.876513 0 1 1 -36.22276,0 18.11138,16.876513 0 1 1 36.22276,0 z"
       sodipodi:ry="16.876513"
       sodipodi:rx="18.11138"
       sodipodi:cy="421.34525"
       sodipodi:cx="309.53995"
       id="path5445"
       style="fill:#fafafa;fill-opacity:1;fill-rule:nonzero;stroke:none"
       sodipodi:type="arc"
       transform="matrix(0.25938022,0,0,0.25938022,157.85869,377.21633)"
       inkscape:export-filename="C:\DT2\www\assets\img\users.png"
       inkscape:export-xdpi="72"
       inkscape:export-ydpi="72" />
    <path
       transform="matrix(0.25938022,0,0,0.25938022,175.79816,377.03293)"
       sodipodi:type="arc"
       style="fill:#fafafa;fill-opacity:1;fill-rule:nonzero;stroke:none"
       id="path5447"
       sodipodi:cx="309.53995"
       sodipodi:cy="421.34525"
       sodipodi:rx="18.11138"
       sodipodi:ry="16.876513"
       d="m 327.65133,421.34525 a 18.11138,16.876513 0 1 1 -36.22276,0 18.11138,16.876513 0 1 1 36.22276,0 z"
       inkscape:export-filename="C:\DT2\www\assets\img\users.png"
       inkscape:export-xdpi="72"
       inkscape:export-ydpi="72" />
    <path
       style="fill:#fafafa;fill-opacity:1;fill-rule:nonzero;stroke:none"
       d="m 252.30903,510.32555 0.0131,0.17856 7.89488,0 0.8592,-8.75409 2.13178,-0.21885 -0.83488,-9.82402 -6.1927,0 0,0 -1.67786,0.0572"
       id="path5505"
       inkscape:export-filename="C:\DT2\www\assets\img\users.png"
       inkscape:export-xdpi="72"
       inkscape:export-ydpi="72"
       inkscape:connector-curvature="0" />
    <path
       style="fill:#fafafa;fill-opacity:1;fill-rule:nonzero;stroke:none"
       d="m 254.50252,491.76435 -4.74181,0.16165 0.21074,9.82402 1.71029,0 0.62729,8.57553"
       id="path5500"
       inkscape:export-filename="C:\DT2\www\assets\img\users.png"
       inkscape:export-xdpi="72"
       inkscape:export-ydpi="72"
       inkscape:connector-curvature="0" />
    <path
       inkscape:connector-curvature="0"
       id="path5507"
       d="m 256.7306,491.15691 -6.41966,0.21886 0.21074,9.82402 1.71029,0 0.64035,8.75409 7.89488,0 0.8592,-8.75409 2.13179,-0.21884 -0.83489,-9.82404 -6.1927,0 z"
       style="fill:#fafafa;fill-opacity:1;fill-rule:nonzero;stroke:none"
       inkscape:export-filename="C:\DT2\www\assets\img\users.png"
       inkscape:export-xdpi="72"
       inkscape:export-ydpi="72" />
    <path
       style="fill:#fafafa;fill-opacity:1;fill-rule:nonzero;stroke:#03549f;stroke-width:3;stroke-miterlimit:4;stroke-opacity:1;stroke-dasharray:none"
       d="m 247.19331,492.25737 -6.41967,0.21886 0.21075,9.82403 1.71028,0 0.64035,8.75408 7.89489,0 0.8592,-8.75408 2.13178,-0.21885 -0.83488,-9.82404 -6.1927,0 z"
       id="path5509"
       inkscape:connector-curvature="0"
       inkscape:export-filename="C:\DT2\www\assets\img\users.png"
       inkscape:export-xdpi="72"
       inkscape:export-ydpi="72" />
    <path
       sodipodi:type="arc"
       style="fill:#fafafa;fill-opacity:1;fill-rule:nonzero;stroke:none"
       id="path5443"
       sodipodi:cx="309.53995"
       sodipodi:cy="421.34525"
       sodipodi:rx="18.11138"
       sodipodi:ry="16.876513"
       d="m 327.65133,421.34525 a 18.11138,16.876513 0 1 1 -36.22276,0 18.11138,16.876513 0 1 1 36.22276,0 z"
       transform="matrix(0.25938022,0,0,0.25938022,166.95025,377.89086)"
       inkscape:export-filename="C:\DT2\www\assets\img\users.png"
       inkscape:export-xdpi="72"
       inkscape:export-ydpi="72" />
  </g>
</svg>
